<svg width="226" height="226" viewBox="0 0 226 226" fill="none" xmlns="http://www.w3.org/2000/svg">
<circle cx="113" cy="113" r="113" fill="#FFD372" fill-opacity="0.1"/>
<circle cx="113" cy="113" r="78" fill="#FFD372" fill-opacity="0.3"/>
<circle cx="113" cy="113" r="48" fill="#FFD372" fill-opacity="0.8"/>
<path d="M186.386 87.9473C186.623 87.1882 186.485 86.3614 186.014 85.7205C185.543 85.0796 184.795 84.7011 184 84.7011H72.4079L69.0287 65.5652C68.8177 64.3707 67.7797 63.5 66.5667 63.5H36C34.6193 63.5 33.5 64.6193 33.5 66V76.1522C33.5 77.5329 34.6193 78.6522 36 78.6522H55.559L69.7129 158.561C66.9459 160.216 64.6208 162.506 62.9565 165.248C60.9599 168.538 60.0065 172.329 60.2243 176.149C60.4421 179.969 61.8206 183.634 64.1753 186.689C66.5292 189.742 69.7525 192.05 73.436 193.34C77.1188 194.63 81.1101 194.849 84.9183 193.973C88.7269 193.096 92.1972 191.159 94.8926 188.389C97.589 185.617 99.3907 182.133 100.059 178.364C100.509 175.829 100.431 173.247 99.8468 170.766H131.553C130.89 173.616 130.895 176.591 131.593 179.469C132.585 183.563 134.921 187.221 138.231 189.909C141.539 192.595 145.648 194.172 149.943 194.42C154.238 194.668 158.509 193.575 162.121 191.292C165.735 189.009 168.503 185.651 169.995 181.706C171.488 177.759 171.617 173.449 170.361 169.424C169.106 165.4 166.54 161.892 163.065 159.411C159.593 156.931 155.394 155.604 151.093 155.614C151.092 155.614 151.091 155.614 151.089 155.614L84.9733 155.614L83.3482 146.469H166.247C167.34 146.469 168.307 145.758 168.633 144.715L186.386 87.9473Z" fill="#FFD372" stroke="black" stroke-width="5" stroke-linecap="round" stroke-linejoin="round"/>
<mask id="mask0" mask-type="alpha" maskUnits="userSpaceOnUse" x="31" y="61" width="158" height="136">
<path d="M186.386 87.9473C186.623 87.1882 186.485 86.3614 186.014 85.7205C185.543 85.0796 184.795 84.7011 184 84.7011H72.4079L69.0287 65.5652C68.8177 64.3707 67.7797 63.5 66.5667 63.5H36C34.6193 63.5 33.5 64.6193 33.5 66V76.1522C33.5 77.5329 34.6193 78.6522 36 78.6522H55.559L69.7129 158.561C66.9459 160.216 64.6208 162.506 62.9565 165.248C60.9599 168.538 60.0065 172.329 60.2243 176.149C60.4421 179.969 61.8206 183.634 64.1753 186.689C66.5292 189.742 69.7525 192.05 73.436 193.34C77.1188 194.63 81.1101 194.849 84.9183 193.973C88.7269 193.096 92.1972 191.159 94.8926 188.389C97.589 185.617 99.3907 182.133 100.059 178.364C100.509 175.829 100.431 173.247 99.8468 170.766H131.553C130.89 173.616 130.895 176.591 131.593 179.469C132.585 183.563 134.921 187.221 138.231 189.909C141.539 192.595 145.648 194.172 149.943 194.42C154.238 194.668 158.509 193.575 162.121 191.292C165.735 189.009 168.503 185.651 169.995 181.706C171.488 177.759 171.617 173.449 170.361 169.424C169.106 165.4 166.54 161.892 163.065 159.411C159.593 156.931 155.394 155.604 151.093 155.614C151.092 155.614 151.091 155.614 151.089 155.614L84.9733 155.614L83.3482 146.469H166.247C167.34 146.469 168.307 145.758 168.633 144.715L186.386 87.9473Z" fill="#FFD372" stroke="black" stroke-width="5" stroke-linecap="round" stroke-linejoin="round"/>
</mask>
<g mask="url(#mask0)">
<path d="M182.392 87.9289C182.622 87.1712 182.48 86.349 182.009 85.7127C181.537 85.0764 180.792 84.7011 180 84.7011H71.4905L68.2045 65.5767C67.9984 64.3769 66.958 63.5 65.7406 63.5H36C34.6193 63.5 33.5 64.6193 33.5 66V76.1522C33.5 77.5329 34.6193 78.6522 36 78.6522H54.9638L68.7382 158.579C66.0361 160.24 63.7721 162.535 62.1547 165.274C60.2141 168.56 59.2908 172.341 59.5019 176.146C59.713 179.95 61.0489 183.607 63.3404 186.662C65.6315 189.717 68.7763 192.035 72.3815 193.333C75.9865 194.63 79.8961 194.851 83.6261 193.969C87.3563 193.087 90.7461 191.139 93.373 188.364C96.0002 185.589 97.7484 182.108 98.3964 178.352C98.8329 175.822 98.7569 173.245 98.187 170.766H128.905C128.258 173.612 128.263 176.582 128.94 179.454C129.903 183.534 132.17 187.192 135.399 189.887C138.628 192.582 142.647 194.17 146.856 194.42C151.065 194.669 155.245 193.568 158.775 191.276C162.305 188.983 164.997 185.621 166.445 181.685C167.893 177.749 168.017 173.454 166.8 169.442C165.582 165.43 163.089 161.92 159.697 159.43C156.306 156.941 152.197 155.604 147.982 155.614C147.981 155.614 147.98 155.614 147.979 155.614L83.7163 155.614L82.1351 146.469H162.727C163.827 146.469 164.798 145.749 165.119 144.696L182.392 87.9289Z" stroke="#FDB406" stroke-width="5" stroke-linecap="round" stroke-linejoin="round"/>
</g>
<path d="M186.386 87.9473C186.623 87.1882 186.485 86.3614 186.014 85.7205C185.543 85.0796 184.795 84.7011 184 84.7011H72.4079L69.0287 65.5652C68.8177 64.3707 67.7797 63.5 66.5667 63.5H36C34.6193 63.5 33.5 64.6193 33.5 66V76.1522C33.5 77.5329 34.6193 78.6522 36 78.6522H55.559L69.7129 158.561C66.9459 160.216 64.6208 162.506 62.9565 165.248C60.9599 168.538 60.0065 172.329 60.2243 176.149C60.4421 179.969 61.8206 183.634 64.1753 186.689C66.5292 189.742 69.7525 192.05 73.436 193.34C77.1188 194.63 81.1101 194.849 84.9183 193.973C88.7269 193.096 92.1972 191.159 94.8926 188.389C97.589 185.617 99.3907 182.133 100.059 178.364C100.509 175.829 100.431 173.247 99.8468 170.766H131.553C130.89 173.616 130.895 176.591 131.593 179.469C132.585 183.563 134.921 187.221 138.231 189.909C141.539 192.595 145.648 194.172 149.943 194.42C154.238 194.668 158.509 193.575 162.121 191.292C165.735 189.009 168.503 185.651 169.995 181.706C171.488 177.759 171.617 173.449 170.361 169.424C169.106 165.4 166.54 161.892 163.065 159.411C159.593 156.931 155.394 155.604 151.093 155.614C151.092 155.614 151.091 155.614 151.089 155.614L84.9733 155.614L83.3482 146.469H166.247C167.34 146.469 168.307 145.758 168.633 144.715L186.386 87.9473Z" stroke="black" stroke-width="5" stroke-linecap="round" stroke-linejoin="round"/>
<path d="M105.822 114.625C108.485 114.625 110.644 112.471 110.644 109.813C110.644 107.155 108.485 105 105.822 105C103.159 105 101 107.155 101 109.813C101 112.471 103.159 114.625 105.822 114.625Z" fill="black"/>
<path d="M137.969 114.625C140.632 114.625 142.791 112.471 142.791 109.813C142.791 107.155 140.632 105 137.969 105C135.306 105 133.147 107.155 133.147 109.813C133.147 112.471 135.306 114.625 137.969 114.625Z" fill="black"/>
<path d="M129.647 127.438H114.647C113.267 127.438 112.147 126.097 112.147 124.438C112.147 122.779 113.267 121.438 114.647 121.438H129.647C131.03 121.438 132.147 122.779 132.147 124.438C132.147 126.097 131.03 127.438 129.647 127.438Z" fill="black"/>
<path d="M94.3818 64.0216L84.6259 50.3624C83.7283 49.1058 83.8959 47.4459 85.0045 46.6542C86.113 45.8624 87.7375 46.2423 88.635 47.4989L98.391 61.1581C99.2901 62.417 99.1209 64.0746 98.0124 64.8664C96.9039 65.6581 95.281 65.2805 94.3818 64.0216Z" fill="black"/>
<path d="M160.894 64.0216L170.65 50.3624C171.547 49.1058 171.38 47.4459 170.271 46.6542C169.163 45.8624 167.538 46.2423 166.641 47.4989L156.885 61.1581C155.985 62.417 156.155 64.0746 157.263 64.8664C158.372 65.6581 159.995 65.2805 160.894 64.0216Z" fill="black"/>
<path d="M130.276 55.125L130.276 37.875C130.276 36.288 129.158 35 127.776 35C126.393 35 125.276 36.288 125.276 37.875L125.276 55.125C125.276 56.7149 126.393 58 127.776 58C129.158 58 130.276 56.7149 130.276 55.125Z" fill="black"/>
<circle cx="98" cy="121" r="3" fill="#FBB40F"/>
<circle cx="146" cy="121" r="3" fill="#FBB40F"/>
<circle cx="17.5" cy="167.5" r="5.5" stroke="#F8D47E" stroke-width="2"/>
<circle cx="76.5" cy="21.5" r="5.5" stroke="#F8D47E" stroke-width="2"/>
<circle cx="180" cy="69" r="3" stroke="#CE9D99" stroke-width="2"/>
<circle cx="88" cy="205" r="3" stroke="#CE9D99" stroke-width="2"/>
<circle cx="197.5" cy="130.5" r="5.5" stroke="#F8D47E" stroke-width="2"/>
<path fill-rule="evenodd" clip-rule="evenodd" d="M156 21V8H159V21H156Z" fill="#F9A161"/>
<path fill-rule="evenodd" clip-rule="evenodd" d="M164 16L151 16L151 13L164 13L164 16Z" fill="#F9A161"/>
<path fill-rule="evenodd" clip-rule="evenodd" d="M34 105V92H37V105H34Z" fill="#FFD372"/>
<path fill-rule="evenodd" clip-rule="evenodd" d="M42 100L29 100L29 97L42 97L42 100Z" fill="#FFD372"/>
<path fill-rule="evenodd" clip-rule="evenodd" d="M154 222V209H157V222H154Z" fill="#FFD372"/>
<path fill-rule="evenodd" clip-rule="evenodd" d="M162 217L149 217L149 214L162 214L162 217Z" fill="#FFD372"/>
</svg>
